<?xml version="1.0" encoding="UTF-8" standalone="no"?>
<!-- Created with Inkscape (http://www.inkscape.org/) -->

<svg
   xmlns:dc="http://purl.org/dc/elements/1.1/"
   xmlns:cc="http://creativecommons.org/ns#"
   xmlns:rdf="http://www.w3.org/1999/02/22-rdf-syntax-ns#"
   xmlns:svg="http://www.w3.org/2000/svg"
   xmlns="http://www.w3.org/2000/svg"
   xmlns:sodipodi="http://sodipodi.sourceforge.net/DTD/sodipodi-0.dtd"
   xmlns:inkscape="http://www.inkscape.org/namespaces/inkscape"
   width="6.6660886mm"
   height="8.0692272mm"
   viewBox="0 0 6.6660886 8.0692272"
   version="1.1"
   id="svg1802"
   inkscape:version="0.92.3 (2405546, 2018-03-11)"
   sodipodi:docname="descarga.svg">
  <defs
     id="defs1796" />
  <sodipodi:namedview
     id="base"
     pagecolor="#ffffff"
     bordercolor="#666666"
     borderopacity="1.0"
     inkscape:pageopacity="0.0"
     inkscape:pageshadow="2"
     inkscape:zoom="22.627417"
     inkscape:cx="-2.6923131"
     inkscape:cy="20.554377"
     inkscape:document-units="mm"
     inkscape:current-layer="g1764"
     showgrid="false"
     fit-margin-top="0"
     fit-margin-left="0"
     fit-margin-right="0"
     fit-margin-bottom="0"
     inkscape:window-width="2880"
     inkscape:window-height="1526"
     inkscape:window-x="-11"
     inkscape:window-y="-11"
     inkscape:window-maximized="1" />
  <metadata
     id="metadata1799">
    <rdf:RDF>
      <cc:Work
         rdf:about="">
        <dc:format>image/svg+xml</dc:format>
        <dc:type
           rdf:resource="http://purl.org/dc/dcmitype/StillImage" />
        <dc:title />
      </cc:Work>
    </rdf:RDF>
  </metadata>
  <g
     inkscape:label="Capa 1"
     inkscape:groupmode="layer"
     id="layer1"
     transform="translate(-72.262194,-121.3642)">
    <g
       transform="matrix(0.35277777,0,0,-0.35277777,44.872316,243.92929)"
       id="g1764">
      <g
         id="g856"
         transform="translate(87.0889,330.1636)"
         style="fill:#0000ff">
        <path
           d="M 0,0 V 17.265"
           style="fill:#550000;stroke:#333333;stroke-width:0.76599997;stroke-linecap:butt;stroke-linejoin:miter;stroke-miterlimit:10;stroke-dasharray:none;stroke-opacity:1"
           id="path858"
           inkscape:connector-curvature="0" />
        <rect
           style="fill:#00a1bb;fill-opacity:1;stroke-width:2.01717901"
           id="rect860"
           width="0.77815193"
           height="17.241648"
           x="-0.39522055"
           y="-17.2325"
           transform="scale(1,-1)" />
        <rect
           style="fill:#00a1bb;fill-opacity:1;stroke-width:0.35831872"
           id="rect862"
           width="0.94349766"
           height="8.34091"
           x="-0.56960249"
           y="-7.9668293"
           transform="matrix(0.71585235,-0.69825168,-0.71772519,-0.69632647,0,0)" />
        <rect
           style="fill:#00a1bb;fill-opacity:1;stroke-width:0.36050257"
           id="rect862-5"
           width="0.94903088"
           height="8.3936653"
           x="-0.37410975"
           y="-8.0289297"
           transform="matrix(0.70045989,0.71369177,0.71617686,-0.69791884,0,0)" />
      </g>
      <g
         id="g860"
         transform="translate(77.6406,324.5552)"
         style="fill:#00a1bb;fill-opacity:1">
        <path
           d="M 0,0 V 3.311 H 1.09 V 1.295 h 16.717 v 2.016 h 1.089 V 0 Z"
           style="fill:#00a1bb;fill-opacity:1;fill-rule:nonzero;stroke:none"
           id="path862"
           inkscape:connector-curvature="0" />
      </g>
    </g>
    <path
       style="fill:#0000ff;fill-opacity:0;stroke-width:0.03156727"
       d="m 8.6726654,19.791368 -3.9239554,-3.92405 0.3466492,-0.347727 0.3466491,-0.347728 3.3227524,3.322641 3.3227523,3.32264 V 10.918601 0.02005847 h 0.505076 0.505076 V 10.918601 21.817144 l 3.330287,-3.330175 3.330287,-3.330175 0.346258,0.347125 0.346258,0.347124 -3.927067,3.932188 -3.927067,3.932188 z"
       id="path14"
       inkscape:connector-curvature="0"
       transform="matrix(0.26458333,0,0,0.26458333,72.262194,121.3642)" />
    <path
       style="fill:#0000ff;fill-opacity:0;stroke-width:0.03156727"
       d="m 8.6726654,19.791368 -3.9239554,-3.92405 0.3466492,-0.347727 0.3466491,-0.347728 3.3227524,3.322641 3.3227523,3.32264 V 10.918601 0.02005847 h 0.505076 0.505076 V 10.918601 21.817144 l 3.330287,-3.330175 3.330287,-3.330175 0.346258,0.347125 0.346258,0.347124 -3.927067,3.932188 -3.927067,3.932188 z"
       id="path16"
       inkscape:connector-curvature="0"
       transform="matrix(0.26458333,0,0,0.26458333,72.262194,121.3642)" />
    <path
       style="fill:#0000ff;fill-opacity:0;stroke-width:0.03156727"
       d="m 8.6726654,19.791368 -3.9239554,-3.92405 0.3466492,-0.347727 0.3466491,-0.347728 3.3227524,3.322641 3.3227523,3.32264 V 10.918601 0.02005847 h 0.505076 0.505076 V 10.918601 21.817144 l 3.330287,-3.330175 3.330287,-3.330175 0.346258,0.347125 0.346258,0.347124 -3.927067,3.932188 -3.927067,3.932188 z"
       id="path18"
       inkscape:connector-curvature="0"
       transform="matrix(0.26458333,0,0,0.26458333,72.262194,121.3642)" />
    <path
       style="fill:#0000ff;fill-opacity:0;stroke-width:0.03156727"
       d="m 8.6726654,19.791368 -3.9239554,-3.92405 0.3466492,-0.347727 0.3466491,-0.347728 3.3227524,3.322641 3.3227523,3.32264 V 10.918601 0.02005847 h 0.505076 0.505076 V 10.918601 21.817144 l 3.330287,-3.330175 3.330287,-3.330175 0.346258,0.347125 0.346258,0.347124 -3.927067,3.932188 -3.927067,3.932188 z"
       id="path20"
       inkscape:connector-curvature="0"
       transform="matrix(0.26458333,0,0,0.26458333,72.262194,121.3642)" />
    <path
       style="fill:#0000ff;fill-opacity:0;stroke-width:0.03156727"
       d="m 8.6726654,19.791368 -3.9239554,-3.92405 0.3466492,-0.347727 0.3466491,-0.347728 3.3227524,3.322641 3.3227523,3.32264 V 10.918601 0.02005847 h 0.505076 0.505076 V 10.918601 21.817144 l 3.330287,-3.330175 3.330287,-3.330175 0.346258,0.347125 0.346258,0.347124 -3.927067,3.932188 -3.927067,3.932188 z"
       id="path22"
       inkscape:connector-curvature="0"
       transform="matrix(0.26458333,0,0,0.26458333,72.262194,121.3642)" />
    <path
       style="fill:#0000ff;fill-opacity:0;stroke-width:0.03156727"
       d="m 8.6726654,19.791368 -3.9239554,-3.92405 0.3466492,-0.347727 0.3466491,-0.347728 3.3227524,3.322641 3.3227523,3.32264 V 10.918601 0.02005847 h 0.505076 0.505076 V 10.918601 21.817144 l 3.330287,-3.330175 3.330287,-3.330175 0.346258,0.347125 0.346258,0.347124 -3.927067,3.932188 -3.927067,3.932188 z"
       id="path24"
       inkscape:connector-curvature="0"
       transform="matrix(0.26458333,0,0,0.26458333,72.262194,121.3642)" />
    <path
       style="fill:#ffff00;fill-opacity:0;stroke-width:0.03156727"
       d="M 0.02881696,28.288546 V 26.094621 H 0.73908047 1.449344 v 1.341609 1.341609 H 12.608373 23.767402 V 27.43623 26.094621 h 0.710263 0.710264 v 2.193925 2.193925 H 12.608373 0.02881696 Z"
       id="path26"
       inkscape:connector-curvature="0"
       transform="matrix(0.26458333,0,0,0.26458333,72.262194,121.3642)" />
  </g>
</svg>
